<svg xmlns="http://www.w3.org/2000/svg" viewBox="159.0 207.0 384.7 366.3">
<path d="M 496.808594 333.1875 C 496.808594 363.660156 472.484375 388.359375 442.480469 388.359375 C 412.476562 388.359375 388.152344 363.660156 388.152344 333.1875 C 388.152344 302.71875 412.476562 278.019531 442.480469 278.019531 C 472.484375 278.019531 496.808594 302.71875 496.808594 333.1875 Z M 496.808594 333.1875 " fill="#4f6fe0"/>
<path d="M 508.085938 424.414062 L 508.085938 534.371094 L 226.855469 225.347656 C 225.6875 224.0625 226.597656 222 228.335938 222 L 326.742188 222 C 327.3125 222 327.855469 222.242188 328.234375 222.667969 L 507.574219 423.082031 C 507.902344 423.449219 508.085938 423.921875 508.085938 424.414062 Z M 508.085938 424.414062 " fill="#d72638"/>
<path d="M 525.964844 558.277344 L 430.621094 558.277344 C 430.019531 558.277344 429.449219 558.007812 429.066406 557.539062 L 358.402344 470.382812 C 357.601562 469.394531 356.097656 469.394531 355.296875 470.382812 L 284.632812 557.535156 C 284.253906 558.003906 283.679688 558.277344 283.074219 558.277344 L 176.609375 558.097656 C 174.859375 558.09375 173.957031 556.003906 175.152344 554.730469 L 353.765625 364.28125 L 527.445312 554.929688 C 528.613281 556.214844 527.703125 558.277344 525.964844 558.277344 Z M 525.964844 558.277344 " fill="#1b1b1b"/>
</svg>
